<?xml version='1.0' encoding='UTF-8' standalone='no'?>
<svg xmlns="http://www.w3.org/2000/svg" xmlns:xlink="http://www.w3.org/1999/xlink" zoomAndPan="magnify" viewBox="71.84 264.70 456.06 70.35" preserveAspectRatio="xMidYMid meet" version="1.0"><defs><filter x="0%" y="0%" width="100%" height="100%" id="5d78624083"><feColorMatrix values="0 0 0 0 1 0 0 0 0 1 0 0 0 0 1 0 0 0 1 0" color-interpolation-filters="sRGB"/></filter><filter x="0%" y="0%" width="100%" height="100%" id="c346fadef9"><feColorMatrix values="0 0 0 0 1 0 0 0 0 1 0 0 0 0 1 0.2126 0.7152 0.0722 0 0" color-interpolation-filters="sRGB"/></filter><clipPath id="d9d294376d"><path d="M 202.175781 282.167969 L 210.074219 282.167969 L 210.074219 325.054688 L 202.175781 325.054688 Z M 202.175781 282.167969 " clip-rule="nonzero"/></clipPath><clipPath id="15deb1b04a"><path d="M 210.046875 297.816406 L 210.046875 320.285156 C 210.046875 321.847656 209.679688 323.015625 208.9375 323.820312 C 208.191406 324.621094 207.253906 325.019531 206.117188 325.019531 C 204.976562 325.019531 204.054688 324.613281 203.339844 323.796875 C 202.628906 322.980469 202.277344 321.808594 202.277344 320.292969 L 202.277344 298.042969 C 202.277344 296.503906 202.628906 295.339844 203.339844 294.570312 C 204.054688 293.796875 204.976562 293.398438 206.117188 293.398438 C 207.253906 293.398438 208.191406 293.789062 208.9375 294.570312 C 209.679688 295.347656 210.046875 296.429688 210.046875 297.816406 M 206.207031 289.785156 C 205.125 289.785156 204.195312 289.453125 203.429688 288.785156 C 202.664062 288.121094 202.277344 287.183594 202.277344 285.964844 C 202.277344 284.863281 202.664062 283.957031 203.460938 283.246094 C 204.253906 282.53125 205.164062 282.179688 206.214844 282.179688 C 207.21875 282.179688 208.109375 282.5 208.890625 283.148438 C 209.671875 283.792969 210.0625 284.730469 210.0625 285.964844 C 210.0625 287.167969 209.679688 288.097656 208.921875 288.773438 C 208.164062 289.445312 207.261719 289.785156 206.214844 289.785156 " clip-rule="nonzero"/></clipPath><clipPath id="235e3fa877"><path d="M 0.175781 0.167969 L 8.074219 0.167969 L 8.074219 43.054688 L 0.175781 43.054688 Z M 0.175781 0.167969 " clip-rule="nonzero"/></clipPath><clipPath id="00ff36c3d5"><path d="M 8.046875 15.816406 L 8.046875 38.285156 C 8.046875 39.847656 7.679688 41.015625 6.9375 41.820312 C 6.191406 42.621094 5.253906 43.019531 4.117188 43.019531 C 2.976562 43.019531 2.054688 42.613281 1.339844 41.796875 C 0.628906 40.980469 0.277344 39.808594 0.277344 38.292969 L 0.277344 16.042969 C 0.277344 14.503906 0.628906 13.339844 1.339844 12.570312 C 2.054688 11.796875 2.976562 11.398438 4.117188 11.398438 C 5.253906 11.398438 6.191406 11.789062 6.9375 12.570312 C 7.679688 13.347656 8.046875 14.429688 8.046875 15.816406 M 4.207031 7.785156 C 3.125 7.785156 2.195312 7.453125 1.429688 6.785156 C 0.664062 6.121094 0.277344 5.183594 0.277344 3.964844 C 0.277344 2.863281 0.664062 1.957031 1.460938 1.246094 C 2.253906 0.53125 3.164062 0.179688 4.214844 0.179688 C 5.21875 0.179688 6.109375 0.5 6.890625 1.148438 C 7.671875 1.792969 8.0625 2.730469 8.0625 3.964844 C 8.0625 5.167969 7.679688 6.097656 6.921875 6.773438 C 6.164062 7.445312 5.261719 7.785156 4.214844 7.785156 " clip-rule="nonzero"/></clipPath><clipPath id="ab2dba1aec"><rect x="0" width="9" y="0" height="44"/></clipPath><clipPath id="9057254f45"><path d="M 213.910156 289.390625 L 249.800781 289.390625 L 249.800781 325.277344 L 213.910156 325.277344 Z M 213.910156 289.390625 " clip-rule="nonzero"/></clipPath><clipPath id="cb1018d95d"><path d="M 241.964844 307.222656 C 241.957031 301.882812 237.351562 297.214844 231.976562 297.285156 C 225.691406 297.359375 221.835938 302.234375 221.714844 307.527344 C 221.589844 312.960938 226.3125 317.585938 231.78125 317.519531 C 237.464844 317.445312 241.980469 312.882812 241.964844 307.222656 M 231.480469 325.132812 C 222.878906 325.3125 213.976562 318.007812 213.929688 307.648438 C 213.878906 297.605469 222.03125 289.492188 231.992188 289.523438 C 241.800781 289.550781 249.691406 297.546875 249.675781 307.417969 C 249.660156 318 240.707031 325.378906 231.488281 325.132812 " clip-rule="nonzero"/></clipPath><clipPath id="fa9d31fa58"><path d="M 0.910156 0.441406 L 36.800781 0.441406 L 36.800781 36.277344 L 0.910156 36.277344 Z M 0.910156 0.441406 " clip-rule="nonzero"/></clipPath><clipPath id="1d0e1f0960"><path d="M 28.964844 18.222656 C 28.957031 12.882812 24.351562 8.214844 18.976562 8.285156 C 12.691406 8.359375 8.835938 13.234375 8.714844 18.527344 C 8.589844 23.960938 13.3125 28.585938 18.78125 28.519531 C 24.464844 28.445312 28.980469 23.882812 28.964844 18.222656 M 18.480469 36.132812 C 9.878906 36.3125 0.976562 29.007812 0.929688 18.648438 C 0.878906 8.605469 9.03125 0.492188 18.992188 0.523438 C 28.800781 0.550781 36.691406 8.546875 36.675781 18.417969 C 36.660156 29 27.707031 36.378906 18.488281 36.132812 " clip-rule="nonzero"/></clipPath><clipPath id="da3a77f76a"><rect x="0" width="37" y="0" height="37"/></clipPath><clipPath id="6ccd19c0e2"><path d="M 131.078125 289.164062 L 166.964844 289.164062 L 166.964844 325 L 131.078125 325 Z M 131.078125 289.164062 " clip-rule="nonzero"/></clipPath><clipPath id="76c57f73a6"><path d="M 166.90625 307.042969 C 166.957031 314.660156 163.449219 320.265625 156.519531 323.347656 C 145.277344 328.339844 133.546875 321.359375 131.542969 310.632812 C 129.667969 300.539062 135.914062 291.5625 145.875 289.753906 C 148.171875 289.339844 150.527344 289.222656 152.867188 289.625 C 153.464844 289.730469 154.027344 289.898438 154.566406 290.160156 C 156.367188 291.027344 157.214844 292.613281 156.832031 294.351562 C 156.40625 296.316406 154.941406 297.523438 152.902344 297.570312 C 152.414062 297.578125 151.9375 297.472656 151.449219 297.417969 C 149.484375 297.195312 147.546875 297.1875 145.652344 297.855469 C 141.0625 299.472656 138.21875 304.445312 139.230469 309.097656 C 140.371094 314.324219 144.886719 317.632812 150.21875 317.144531 C 155.027344 316.710938 158.964844 312.585938 159.152344 307.746094 C 159.195312 306.613281 159.121094 305.480469 159.144531 304.347656 C 159.179688 302.242188 160.710938 300.734375 162.863281 300.636719 C 165.089844 300.539062 166.6875 301.820312 166.890625 303.972656 C 166.988281 304.988281 166.90625 306.023438 166.90625 307.042969 " clip-rule="nonzero"/></clipPath><clipPath id="400f54372c"><path d="M 0.078125 0.199219 L 35.964844 0.199219 L 35.964844 36 L 0.078125 36 Z M 0.078125 0.199219 " clip-rule="nonzero"/></clipPath><clipPath id="2f482b31ea"><path d="M 35.90625 18.042969 C 35.957031 25.660156 32.449219 31.265625 25.519531 34.347656 C 14.277344 39.339844 2.546875 32.359375 0.542969 21.632812 C -1.332031 11.539062 4.914062 2.5625 14.875 0.753906 C 17.171875 0.339844 19.527344 0.222656 21.867188 0.625 C 22.464844 0.730469 23.027344 0.898438 23.566406 1.160156 C 25.367188 2.027344 26.214844 3.613281 25.832031 5.351562 C 25.40625 7.316406 23.941406 8.523438 21.902344 8.570312 C 21.414062 8.578125 20.9375 8.472656 20.449219 8.417969 C 18.484375 8.195312 16.546875 8.1875 14.652344 8.855469 C 10.0625 10.472656 7.21875 15.445312 8.230469 20.097656 C 9.371094 25.324219 13.886719 28.632812 19.21875 28.144531 C 24.027344 27.710938 27.964844 23.585938 28.152344 18.746094 C 28.195312 17.613281 28.121094 16.480469 28.144531 15.347656 C 28.179688 13.242188 29.710938 11.734375 31.863281 11.636719 C 34.089844 11.539062 35.6875 12.820312 35.890625 14.972656 C 35.988281 15.988281 35.90625 17.023438 35.90625 18.042969 " clip-rule="nonzero"/></clipPath><clipPath id="d3be088b7d"><rect x="0" width="36" y="0" height="36"/></clipPath><clipPath id="0d41e291c9"><path d="M 253.410156 289.390625 L 287.941406 289.390625 L 287.941406 325.054688 L 253.410156 325.054688 Z M 253.410156 289.390625 " clip-rule="nonzero"/></clipPath><clipPath id="621602f3c5"><path d="M 287.722656 313.378906 C 287.722656 315.863281 287.722656 318.335938 287.722656 320.820312 C 287.722656 323.429688 286.378906 324.953125 284.039062 324.988281 C 281.722656 325.027344 280.089844 323.363281 280.066406 320.820312 C 280.027344 316.078125 280.019531 311.339844 280.050781 306.589844 C 280.058594 304.859375 279.59375 303.300781 278.699219 301.84375 C 276.75 298.648438 272.992188 296.855469 269.410156 297.410156 C 265.425781 298.027344 262.507812 300.644531 261.554688 304.425781 C 261.292969 305.480469 261.210938 306.546875 261.21875 307.625 C 261.234375 312.15625 261.144531 316.679688 261.261719 321.210938 C 261.324219 323.4375 258.96875 325.917969 255.863281 324.710938 C 254.394531 324.140625 253.664062 322.996094 253.605469 321.457031 C 253.566406 320.4375 253.613281 319.410156 253.605469 318.382812 C 253.589844 314.503906 253.464844 310.621094 253.589844 306.742188 C 253.792969 300.726562 256.246094 295.785156 261.332031 292.339844 C 271.109375 285.726562 285.039062 291.402344 287.347656 302.902344 C 287.597656 304.125 287.722656 305.347656 287.714844 306.589844 C 287.699219 308.855469 287.707031 311.121094 287.707031 313.378906 Z M 287.722656 313.378906 " clip-rule="nonzero"/></clipPath><clipPath id="2b8fe9bd87"><path d="M 0.441406 0.390625 L 34.761719 0.390625 L 34.761719 36.054688 L 0.441406 36.054688 Z M 0.441406 0.390625 " clip-rule="nonzero"/></clipPath><clipPath id="57466a0201"><path d="M 34.722656 24.378906 C 34.722656 26.863281 34.722656 29.335938 34.722656 31.820312 C 34.722656 34.429688 33.378906 35.953125 31.039062 35.988281 C 28.722656 36.027344 27.089844 34.363281 27.066406 31.820312 C 27.027344 27.078125 27.019531 22.339844 27.050781 17.589844 C 27.058594 15.859375 26.59375 14.300781 25.699219 12.84375 C 23.75 9.648438 19.992188 7.855469 16.410156 8.410156 C 12.425781 9.027344 9.507812 11.644531 8.554688 15.425781 C 8.292969 16.480469 8.210938 17.546875 8.21875 18.625 C 8.234375 23.15625 8.144531 27.679688 8.261719 32.210938 C 8.324219 34.4375 5.96875 36.917969 2.863281 35.710938 C 1.394531 35.140625 0.664062 33.996094 0.605469 32.457031 C 0.566406 31.4375 0.613281 30.410156 0.605469 29.382812 C 0.589844 25.503906 0.464844 21.621094 0.589844 17.742188 C 0.792969 11.726562 3.246094 6.785156 8.332031 3.339844 C 18.109375 -3.273438 32.039062 2.402344 34.347656 13.902344 C 34.597656 15.125 34.722656 16.347656 34.714844 17.589844 C 34.699219 19.855469 34.707031 22.121094 34.707031 24.378906 Z M 34.722656 24.378906 " clip-rule="nonzero"/></clipPath><clipPath id="e47806de0c"><rect x="0" width="35" y="0" height="37"/></clipPath><clipPath id="53acd01e74"><path d="M 162.226562 274.71875 L 199.464844 274.71875 L 199.464844 325.054688 L 162.226562 325.054688 Z M 162.226562 274.71875 " clip-rule="nonzero"/></clipPath><clipPath id="0804b2352a"><path d="M 199.351562 292.695312 C 198.945312 290.863281 197.519531 289.582031 195.699219 289.542969 C 193.664062 289.5 188.125 289.535156 184.875 289.527344 C 184.875 285 184.875 279.410156 184.851562 278.730469 C 184.808594 276.53125 183.160156 274.910156 181.027344 274.867188 C 178.890625 274.8125 177.339844 276.195312 177.113281 278.398438 C 177.074219 278.757812 177.046875 279.121094 177.015625 279.480469 C 176.984375 279.90625 176.964844 280.335938 176.949219 280.761719 C 176.925781 281.390625 176.964844 289.527344 176.964844 289.527344 C 176.964844 289.527344 167.691406 289.527344 166.296875 289.523438 C 164.625 289.507812 163.515625 290.398438 162.804688 291.785156 C 162.066406 293.21875 162.324219 294.644531 163.253906 295.933594 C 164.101562 297.105469 165.324219 297.398438 166.703125 297.390625 L 176.941406 297.375 C 176.949219 302.835938 176.910156 319.148438 176.949219 321.15625 C 177 323.355469 178.644531 324.972656 180.78125 325.019531 C 182.917969 325.0625 184.472656 323.683594 184.6875 321.480469 C 184.851562 319.910156 184.9375 318.335938 184.816406 316.753906 L 184.867188 297.359375 L 195.097656 297.34375 C 195.863281 297.34375 196.613281 297.320312 197.316406 296.945312 C 198.863281 296.113281 199.71875 294.351562 199.351562 292.695312 " clip-rule="nonzero"/></clipPath><clipPath id="f2b1c9b46f"><path d="M 0.226562 0.800781 L 37.464844 0.800781 L 37.464844 51.054688 L 0.226562 51.054688 Z M 0.226562 0.800781 " clip-rule="nonzero"/></clipPath><clipPath id="d2ce69dc51"><path d="M 37.351562 18.695312 C 36.945312 16.863281 35.519531 15.582031 33.699219 15.542969 C 31.664062 15.5 26.125 15.535156 22.875 15.527344 C 22.875 11 22.875 5.410156 22.851562 4.730469 C 22.808594 2.53125 21.160156 0.910156 19.027344 0.867188 C 16.890625 0.8125 15.339844 2.195312 15.113281 4.398438 C 15.074219 4.757812 15.046875 5.121094 15.015625 5.480469 C 14.984375 5.90625 14.964844 6.335938 14.949219 6.761719 C 14.925781 7.390625 14.964844 15.527344 14.964844 15.527344 C 14.964844 15.527344 5.691406 15.527344 4.296875 15.523438 C 2.625 15.507812 1.515625 16.398438 0.804688 17.785156 C 0.0664062 19.21875 0.324219 20.644531 1.253906 21.933594 C 2.101562 23.105469 3.324219 23.398438 4.703125 23.390625 L 14.941406 23.375 C 14.949219 28.835938 14.910156 45.148438 14.949219 47.15625 C 15 49.355469 16.644531 50.972656 18.78125 51.019531 C 20.917969 51.0625 22.472656 49.683594 22.6875 47.480469 C 22.851562 45.910156 22.9375 44.335938 22.816406 42.753906 L 22.867188 23.359375 L 33.097656 23.34375 C 33.863281 23.34375 34.613281 23.320312 35.316406 22.945312 C 36.863281 22.113281 37.71875 20.351562 37.351562 18.695312 " clip-rule="nonzero"/></clipPath><clipPath id="624ee13d7a"><rect x="0" width="38" y="0" height="52"/></clipPath><clipPath id="5f11753de2"><path d="M 84.582031 279.460938 L 127.464844 279.460938 L 127.464844 324.828125 L 84.582031 324.828125 Z M 84.582031 279.460938 " clip-rule="nonzero"/></clipPath><clipPath id="cec6aec5e3"><path d="M 100.042969 317.195312 L 92.957031 289.019531 L 92.957031 319.542969 C 92.957031 321.230469 92.582031 322.5 91.824219 323.347656 C 91.066406 324.195312 90.066406 324.613281 88.824219 324.613281 C 87.617188 324.613281 86.632812 324.195312 85.867188 323.363281 C 85.101562 322.527344 84.722656 321.261719 84.722656 319.550781 L 84.722656 284.558594 C 84.722656 282.628906 85.222656 281.324219 86.226562 280.648438 C 87.234375 279.972656 88.589844 279.636719 90.300781 279.636719 L 93.074219 279.636719 C 94.75 279.636719 95.957031 279.785156 96.714844 280.085938 C 97.472656 280.386719 98.027344 280.933594 98.386719 281.714844 C 98.746094 282.496094 99.160156 283.777344 99.625 285.546875 L 106.050781 309.773438 L 112.472656 285.554688 C 112.9375 283.785156 113.347656 282.507812 113.707031 281.722656 C 114.066406 280.933594 114.628906 280.394531 115.378906 280.09375 C 116.128906 279.792969 117.347656 279.644531 119.019531 279.644531 L 121.792969 279.644531 C 123.503906 279.644531 124.859375 279.980469 125.867188 280.65625 C 126.871094 281.332031 127.375 282.636719 127.375 284.5625 L 127.375 319.550781 C 127.375 321.238281 127 322.507812 126.242188 323.355469 C 125.484375 324.203125 124.476562 324.621094 123.210938 324.621094 C 122.027344 324.621094 121.050781 324.203125 120.285156 323.355469 C 119.519531 322.507812 119.136719 321.246094 119.136719 319.550781 L 119.136719 289.019531 L 112.050781 317.195312 C 111.585938 319.027344 111.210938 320.371094 110.917969 321.222656 C 110.625 322.078125 110.09375 322.859375 109.304688 323.558594 C 108.519531 324.253906 107.4375 324.613281 106.042969 324.613281 C 105 324.613281 104.117188 324.390625 103.386719 323.933594 C 102.660156 323.472656 102.097656 322.902344 101.699219 322.199219 C 101.304688 321.496094 100.980469 320.714844 100.75 319.859375 C 100.515625 319.003906 100.285156 318.113281 100.035156 317.1875 " clip-rule="nonzero"/></clipPath><clipPath id="63f2d6ad9f"><path d="M 0.71875 0.601562 L 43.441406 0.601562 L 43.441406 45.71875 L 0.71875 45.71875 Z M 0.71875 0.601562 " clip-rule="nonzero"/></clipPath><clipPath id="2b41675457"><path d="M 16.042969 38.195312 L 8.957031 10.019531 L 8.957031 40.542969 C 8.957031 42.230469 8.582031 43.5 7.824219 44.347656 C 7.066406 45.195312 6.066406 45.613281 4.824219 45.613281 C 3.617188 45.613281 2.632812 45.195312 1.867188 44.363281 C 1.101562 43.527344 0.722656 42.261719 0.722656 40.550781 L 0.722656 5.558594 C 0.722656 3.628906 1.222656 2.324219 2.226562 1.648438 C 3.234375 0.972656 4.589844 0.636719 6.300781 0.636719 L 9.074219 0.636719 C 10.75 0.636719 11.957031 0.785156 12.714844 1.085938 C 13.472656 1.386719 14.027344 1.933594 14.386719 2.714844 C 14.746094 3.496094 15.160156 4.777344 15.625 6.546875 L 22.050781 30.773438 L 28.472656 6.554688 C 28.9375 4.785156 29.347656 3.507812 29.707031 2.722656 C 30.066406 1.933594 30.628906 1.394531 31.378906 1.09375 C 32.128906 0.792969 33.347656 0.644531 35.019531 0.644531 L 37.792969 0.644531 C 39.503906 0.644531 40.859375 0.980469 41.867188 1.65625 C 42.871094 2.332031 43.375 3.636719 43.375 5.5625 L 43.375 40.550781 C 43.375 42.238281 43 43.507812 42.242188 44.355469 C 41.484375 45.203125 40.476562 45.621094 39.210938 45.621094 C 38.027344 45.621094 37.050781 45.203125 36.285156 44.355469 C 35.519531 43.507812 35.136719 42.246094 35.136719 40.550781 L 35.136719 10.019531 L 28.050781 38.195312 C 27.585938 40.027344 27.210938 41.371094 26.917969 42.222656 C 26.625 43.078125 26.09375 43.859375 25.304688 44.558594 C 24.519531 45.253906 23.4375 45.613281 22.042969 45.613281 C 21 45.613281 20.117188 45.390625 19.386719 44.933594 C 18.660156 44.472656 18.097656 43.902344 17.699219 43.199219 C 17.304688 42.496094 16.980469 41.714844 16.75 40.859375 C 16.515625 40.003906 16.285156 39.113281 16.035156 38.1875 " clip-rule="nonzero"/></clipPath><clipPath id="82320460a4"><rect x="0" width="44" y="0" height="46"/></clipPath><clipPath id="cd5c0d433a"><path d="M 308.035156 279.570312 L 350.726562 279.570312 L 350.726562 324.761719 L 308.035156 324.761719 Z M 308.035156 279.570312 " clip-rule="nonzero"/></clipPath><clipPath id="27d7cbb241"><path d="M 323.359375 317.308594 L 316.273438 289.136719 L 316.273438 319.664062 C 316.273438 321.351562 315.898438 322.617188 315.140625 323.464844 C 314.382812 324.3125 313.382812 324.734375 312.140625 324.734375 C 310.933594 324.734375 309.949219 324.3125 309.183594 323.480469 C 308.417969 322.648438 308.035156 321.371094 308.035156 319.664062 L 308.035156 284.667969 C 308.035156 282.738281 308.539062 281.433594 309.542969 280.761719 C 310.550781 280.085938 311.90625 279.753906 313.617188 279.753906 L 316.390625 279.753906 C 318.066406 279.753906 319.273438 279.90625 320.03125 280.207031 C 320.785156 280.503906 321.34375 281.050781 321.703125 281.832031 C 322.0625 282.613281 322.472656 283.894531 322.941406 285.664062 L 329.367188 309.890625 L 335.785156 285.664062 C 336.253906 283.894531 336.664062 282.621094 337.023438 281.832031 C 337.382812 281.046875 337.945312 280.503906 338.695312 280.207031 C 339.445312 279.90625 340.660156 279.753906 342.335938 279.753906 L 345.109375 279.753906 C 346.820312 279.753906 348.175781 280.09375 349.183594 280.769531 C 350.1875 281.441406 350.691406 282.746094 350.691406 284.675781 L 350.691406 319.664062 C 350.691406 321.351562 350.316406 322.617188 349.558594 323.464844 C 348.800781 324.3125 347.792969 324.734375 346.527344 324.734375 C 345.34375 324.734375 344.367188 324.3125 343.601562 323.464844 C 342.835938 322.617188 342.453125 321.359375 342.453125 319.664062 L 342.453125 289.136719 L 335.367188 317.308594 C 334.902344 319.136719 334.527344 320.480469 334.234375 321.335938 C 333.941406 322.191406 333.402344 322.96875 332.621094 323.675781 C 331.84375 324.378906 330.753906 324.734375 329.359375 324.734375 C 328.316406 324.734375 327.433594 324.507812 326.703125 324.050781 C 325.976562 323.59375 325.414062 323.023438 325.015625 322.316406 C 324.621094 321.613281 324.296875 320.832031 324.066406 319.976562 C 323.832031 319.121094 323.597656 318.230469 323.359375 317.308594 " clip-rule="nonzero"/></clipPath><clipPath id="62e048f341"><path d="M 0.0351562 0.601562 L 42.726562 0.601562 L 42.726562 45.761719 L 0.0351562 45.761719 Z M 0.0351562 0.601562 " clip-rule="nonzero"/></clipPath><clipPath id="eac4f445bb"><path d="M 15.359375 38.308594 L 8.273438 10.136719 L 8.273438 40.664062 C 8.273438 42.351562 7.898438 43.617188 7.140625 44.464844 C 6.382812 45.3125 5.382812 45.734375 4.140625 45.734375 C 2.933594 45.734375 1.949219 45.3125 1.183594 44.480469 C 0.417969 43.648438 0.0351562 42.371094 0.0351562 40.664062 L 0.0351562 5.667969 C 0.0351562 3.738281 0.539062 2.433594 1.542969 1.761719 C 2.550781 1.085938 3.90625 0.753906 5.617188 0.753906 L 8.390625 0.753906 C 10.066406 0.753906 11.273438 0.90625 12.03125 1.207031 C 12.785156 1.503906 13.34375 2.050781 13.703125 2.832031 C 14.0625 3.613281 14.472656 4.894531 14.941406 6.664062 L 21.367188 30.890625 L 27.785156 6.664062 C 28.253906 4.894531 28.664062 3.621094 29.023438 2.832031 C 29.382812 2.046875 29.945312 1.503906 30.695312 1.207031 C 31.445312 0.90625 32.660156 0.753906 34.335938 0.753906 L 37.109375 0.753906 C 38.820312 0.753906 40.175781 1.09375 41.183594 1.769531 C 42.1875 2.441406 42.691406 3.746094 42.691406 5.675781 L 42.691406 40.664062 C 42.691406 42.351562 42.316406 43.617188 41.558594 44.464844 C 40.800781 45.3125 39.792969 45.734375 38.527344 45.734375 C 37.34375 45.734375 36.367188 45.3125 35.601562 44.464844 C 34.835938 43.617188 34.453125 42.359375 34.453125 40.664062 L 34.453125 10.136719 L 27.367188 38.308594 C 26.902344 40.136719 26.527344 41.480469 26.234375 42.335938 C 25.941406 43.191406 25.402344 43.96875 24.621094 44.675781 C 23.84375 45.378906 22.753906 45.734375 21.359375 45.734375 C 20.316406 45.734375 19.433594 45.507812 18.703125 45.050781 C 17.976562 44.59375 17.414062 44.023438 17.015625 43.316406 C 16.621094 42.613281 16.296875 41.832031 16.066406 40.976562 C 15.832031 40.121094 15.597656 39.230469 15.359375 38.308594 " clip-rule="nonzero"/></clipPath><clipPath id="71bc572c63"><rect x="0" width="43" y="0" height="46"/></clipPath><clipPath id="f0bee3d37f"><path d="M 425.695312 279.152344 L 434.234375 279.152344 L 434.234375 324.96875 L 425.695312 324.96875 Z M 425.695312 279.152344 " clip-rule="nonzero"/></clipPath><clipPath id="10e1e128c5"><path d="M 434.082031 295.925781 L 434.082031 319.765625 C 434.082031 321.417969 433.691406 322.671875 432.90625 323.515625 C 432.117188 324.363281 431.121094 324.785156 429.910156 324.785156 C 428.703125 324.785156 427.722656 324.351562 426.964844 323.488281 C 426.207031 322.625 425.832031 321.378906 425.832031 319.765625 L 425.832031 296.164062 C 425.832031 294.53125 426.207031 293.308594 426.964844 292.476562 C 427.722656 291.644531 428.703125 291.238281 429.910156 291.238281 C 431.121094 291.238281 432.117188 291.648438 432.90625 292.476562 C 433.691406 293.300781 434.082031 294.449219 434.082031 295.917969 M 430.003906 287.40625 C 428.855469 287.40625 427.871094 287.050781 427.054688 286.347656 C 426.238281 285.644531 425.832031 284.644531 425.832031 283.355469 C 425.832031 282.183594 426.253906 281.226562 427.085938 280.46875 C 427.917969 279.710938 428.890625 279.335938 430.003906 279.335938 C 431.066406 279.335938 432.011719 279.679688 432.84375 280.363281 C 433.675781 281.046875 434.082031 282.042969 434.082031 283.355469 C 434.082031 284.621094 433.675781 285.621094 432.875 286.332031 C 432.070312 287.046875 431.113281 287.40625 430.003906 287.40625 " clip-rule="nonzero"/></clipPath><clipPath id="3cd89b18e0"><path d="M 0.761719 0.152344 L 9.160156 0.152344 L 9.160156 45.960938 L 0.761719 45.960938 Z M 0.761719 0.152344 " clip-rule="nonzero"/></clipPath><clipPath id="35a97a3a2c"><path d="M 9.082031 16.925781 L 9.082031 40.765625 C 9.082031 42.417969 8.691406 43.671875 7.90625 44.515625 C 7.117188 45.363281 6.121094 45.785156 4.910156 45.785156 C 3.703125 45.785156 2.722656 45.351562 1.964844 44.488281 C 1.207031 43.625 0.832031 42.378906 0.832031 40.765625 L 0.832031 17.164062 C 0.832031 15.53125 1.207031 14.308594 1.964844 13.476562 C 2.722656 12.644531 3.703125 12.238281 4.910156 12.238281 C 6.121094 12.238281 7.117188 12.648438 7.90625 13.476562 C 8.691406 14.300781 9.082031 15.449219 9.082031 16.917969 M 5.003906 8.40625 C 3.855469 8.40625 2.871094 8.050781 2.054688 7.347656 C 1.238281 6.644531 0.832031 5.644531 0.832031 4.355469 C 0.832031 3.183594 1.253906 2.226562 2.085938 1.46875 C 2.917969 0.710938 3.890625 0.335938 5.003906 0.335938 C 6.066406 0.335938 7.011719 0.679688 7.84375 1.363281 C 8.675781 2.046875 9.082031 3.042969 9.082031 4.355469 C 9.082031 5.621094 8.675781 6.621094 7.875 7.332031 C 7.070312 8.046875 6.113281 8.40625 5.003906 8.40625 " clip-rule="nonzero"/></clipPath><clipPath id="e5efda0142"><rect x="0" width="10" y="0" height="46"/></clipPath><clipPath id="27ea00adbd"><path d="M 354.476562 291.230469 L 385.921875 291.230469 L 385.921875 325 L 354.476562 325 Z M 354.476562 291.230469 " clip-rule="nonzero"/></clipPath><clipPath id="f9cad31060"><path d="M 362.9375 305.539062 L 377.890625 305.539062 C 377.691406 302.71875 376.933594 300.613281 375.613281 299.210938 C 374.292969 297.808594 372.550781 297.109375 370.398438 297.109375 C 368.34375 297.109375 366.65625 297.824219 365.335938 299.238281 C 364.015625 300.65625 363.214844 302.757812 362.9375 305.539062 M 379.078125 310.21875 L 362.9375 310.21875 C 362.960938 312.09375 363.335938 313.746094 364.070312 315.175781 C 364.804688 316.609375 365.78125 317.683594 367.003906 318.410156 C 368.222656 319.136719 369.566406 319.496094 371.035156 319.496094 C 372.027344 319.496094 372.925781 319.386719 373.738281 319.152344 C 374.546875 318.921875 375.34375 318.558594 376.105469 318.066406 C 376.871094 317.570312 377.578125 317.046875 378.222656 316.484375 C 378.867188 315.921875 379.699219 315.15625 380.726562 314.1875 C 381.148438 313.828125 381.753906 313.640625 382.542969 313.640625 C 383.390625 313.640625 384.070312 313.871094 384.597656 314.335938 C 385.121094 314.800781 385.382812 315.453125 385.382812 316.300781 C 385.382812 317.046875 385.09375 317.914062 384.507812 318.921875 C 383.921875 319.925781 383.042969 320.878906 381.859375 321.792969 C 380.675781 322.707031 379.203125 323.472656 377.417969 324.074219 C 375.632812 324.671875 373.585938 324.980469 371.269531 324.980469 C 365.96875 324.980469 361.847656 323.472656 358.910156 320.449219 C 355.96875 317.425781 354.5 313.324219 354.5 308.148438 C 354.5 305.710938 354.859375 303.449219 355.585938 301.363281 C 356.316406 299.277344 357.371094 297.492188 358.757812 296 C 360.148438 294.507812 361.863281 293.367188 363.898438 292.574219 C 365.929688 291.777344 368.1875 291.378906 370.660156 291.378906 C 373.886719 291.378906 376.648438 292.0625 378.957031 293.421875 C 381.265625 294.777344 382.992188 296.539062 384.140625 298.691406 C 385.285156 300.84375 385.863281 303.042969 385.863281 305.277344 C 385.863281 307.355469 385.273438 308.699219 384.078125 309.3125 C 382.886719 309.925781 381.222656 310.234375 379.0625 310.234375 " clip-rule="nonzero"/></clipPath><clipPath id="b578fd018f"><path d="M 0.480469 0.359375 L 31.921875 0.359375 L 31.921875 34 L 0.480469 34 Z M 0.480469 0.359375 " clip-rule="nonzero"/></clipPath><clipPath id="d6c9b60ca1"><path d="M 8.9375 14.539062 L 23.890625 14.539062 C 23.691406 11.71875 22.933594 9.613281 21.613281 8.210938 C 20.292969 6.808594 18.550781 6.109375 16.398438 6.109375 C 14.34375 6.109375 12.65625 6.824219 11.335938 8.238281 C 10.015625 9.65625 9.214844 11.757812 8.9375 14.539062 M 25.078125 19.21875 L 8.9375 19.21875 C 8.960938 21.09375 9.335938 22.746094 10.070312 24.175781 C 10.804688 25.609375 11.78125 26.683594 13.003906 27.410156 C 14.222656 28.136719 15.566406 28.496094 17.035156 28.496094 C 18.027344 28.496094 18.925781 28.386719 19.738281 28.152344 C 20.546875 27.921875 21.34375 27.558594 22.105469 27.066406 C 22.871094 26.570312 23.578125 26.046875 24.222656 25.484375 C 24.867188 24.921875 25.699219 24.15625 26.726562 23.1875 C 27.148438 22.828125 27.753906 22.640625 28.542969 22.640625 C 29.390625 22.640625 30.070312 22.871094 30.597656 23.335938 C 31.121094 23.800781 31.382812 24.453125 31.382812 25.300781 C 31.382812 26.046875 31.09375 26.914062 30.507812 27.921875 C 29.921875 28.925781 29.042969 29.878906 27.859375 30.792969 C 26.675781 31.707031 25.203125 32.472656 23.417969 33.074219 C 21.632812 33.671875 19.585938 33.980469 17.269531 33.980469 C 11.96875 33.980469 7.847656 32.472656 4.910156 29.449219 C 1.96875 26.425781 0.5 22.324219 0.5 17.148438 C 0.5 14.710938 0.859375 12.449219 1.585938 10.363281 C 2.316406 8.277344 3.371094 6.492188 4.757812 5 C 6.148438 3.507812 7.863281 2.367188 9.898438 1.574219 C 11.929688 0.777344 14.1875 0.378906 16.660156 0.378906 C 19.886719 0.378906 22.648438 1.0625 24.957031 2.421875 C 27.265625 3.777344 28.992188 5.539062 30.140625 7.691406 C 31.285156 9.84375 31.863281 12.042969 31.863281 14.277344 C 31.863281 16.355469 31.273438 17.699219 30.078125 18.3125 C 28.886719 18.925781 27.222656 19.234375 25.0625 19.234375 " clip-rule="nonzero"/></clipPath><clipPath id="599260ea0f"><rect x="0" width="32" y="0" height="34"/></clipPath><clipPath id="9343c9e0af"><path d="M 389.667969 279.152344 L 422 279.152344 L 422 325 L 389.667969 325 Z M 389.667969 279.152344 " clip-rule="nonzero"/></clipPath><clipPath id="8423cccfd2"><path d="M 397.953125 308.136719 C 397.953125 310.371094 398.300781 312.273438 398.996094 313.84375 C 399.695312 315.410156 400.648438 316.59375 401.855469 317.390625 C 403.0625 318.183594 404.382812 318.582031 405.816406 318.582031 C 407.261719 318.582031 408.589844 318.207031 409.789062 317.449219 C 410.988281 316.691406 411.949219 315.539062 412.660156 313.976562 C 413.375 312.417969 413.734375 310.46875 413.734375 308.128906 C 413.734375 305.929688 413.375 304.039062 412.660156 302.457031 C 411.949219 300.875 410.972656 299.667969 409.757812 298.835938 C 408.542969 298.003906 407.210938 297.582031 405.753906 297.582031 C 404.246094 297.582031 402.898438 298.011719 401.703125 298.863281 C 400.511719 299.71875 399.597656 300.949219 398.9375 302.554688 C 398.277344 304.160156 397.953125 306.011719 397.953125 308.128906 M 414.175781 320.253906 L 414.175781 319.4375 C 413.066406 320.703125 411.972656 321.738281 410.898438 322.535156 C 409.828125 323.328125 408.648438 323.9375 407.398438 324.351562 C 406.144531 324.761719 404.765625 324.972656 403.273438 324.972656 C 401.300781 324.972656 399.46875 324.550781 397.789062 323.71875 C 396.109375 322.886719 394.65625 321.6875 393.425781 320.140625 C 392.195312 318.597656 391.265625 316.765625 390.628906 314.675781 C 389.988281 312.582031 389.675781 310.316406 389.675781 307.871094 C 389.675781 302.710938 390.933594 298.699219 393.453125 295.8125 C 395.972656 292.925781 399.289062 291.492188 403.398438 291.492188 C 405.777344 291.492188 407.78125 291.898438 409.414062 292.714844 C 411.050781 293.53125 412.640625 294.785156 414.191406 296.480469 L 414.191406 284.292969 C 414.191406 282.597656 414.53125 281.324219 415.203125 280.453125 C 415.878906 279.582031 416.832031 279.15625 418.078125 279.15625 C 419.320312 279.15625 420.289062 279.550781 420.964844 280.347656 C 421.640625 281.144531 421.976562 282.320312 421.976562 283.871094 L 421.976562 320.253906 C 421.976562 321.828125 421.617188 323.007812 420.890625 323.789062 C 420.160156 324.566406 419.226562 324.964844 418.078125 324.964844 C 416.945312 324.964844 416.015625 324.558594 415.28125 323.742188 C 414.542969 322.925781 414.175781 321.761719 414.175781 320.253906 " clip-rule="nonzero"/></clipPath><clipPath id="6020335cad"><path d="M 0.667969 0.152344 L 33 0.152344 L 33 46 L 0.667969 46 Z M 0.667969 0.152344 " clip-rule="nonzero"/></clipPath><clipPath id="49261b7456"><path d="M 8.953125 29.136719 C 8.953125 31.371094 9.300781 33.273438 9.996094 34.84375 C 10.695312 36.410156 11.648438 37.59375 12.855469 38.390625 C 14.0625 39.183594 15.382812 39.582031 16.816406 39.582031 C 18.261719 39.582031 19.589844 39.207031 20.789062 38.449219 C 21.988281 37.691406 22.949219 36.539062 23.660156 34.976562 C 24.375 33.417969 24.734375 31.46875 24.734375 29.128906 C 24.734375 26.929688 24.375 25.039062 23.660156 23.457031 C 22.949219 21.875 21.972656 20.667969 20.757812 19.835938 C 19.542969 19.003906 18.210938 18.582031 16.753906 18.582031 C 15.246094 18.582031 13.898438 19.011719 12.703125 19.863281 C 11.511719 20.71875 10.597656 21.949219 9.9375 23.554688 C 9.277344 25.160156 8.953125 27.011719 8.953125 29.128906 M 25.175781 41.253906 L 25.175781 40.4375 C 24.066406 41.703125 22.972656 42.738281 21.898438 43.535156 C 20.828125 44.328125 19.648438 44.9375 18.398438 45.351562 C 17.144531 45.761719 15.765625 45.972656 14.273438 45.972656 C 12.300781 45.972656 10.46875 45.550781 8.789062 44.71875 C 7.109375 43.886719 5.65625 42.6875 4.425781 41.140625 C 3.195312 39.597656 2.265625 37.765625 1.628906 35.675781 C 0.988281 33.582031 0.675781 31.316406 0.675781 28.871094 C 0.675781 23.710938 1.933594 19.699219 4.453125 16.8125 C 6.972656 13.925781 10.289062 12.492188 14.398438 12.492188 C 16.777344 12.492188 18.78125 12.898438 20.414062 13.714844 C 22.050781 14.53125 23.640625 15.785156 25.191406 17.480469 L 25.191406 5.292969 C 25.191406 3.597656 25.53125 2.324219 26.203125 1.453125 C 26.878906 0.582031 27.832031 0.15625 29.078125 0.15625 C 30.320312 0.15625 31.289062 0.550781 31.964844 1.347656 C 32.640625 2.144531 32.976562 3.320312 32.976562 4.871094 L 32.976562 41.253906 C 32.976562 42.828125 32.617188 44.007812 31.890625 44.789062 C 31.160156 45.566406 30.226562 45.964844 29.078125 45.964844 C 27.945312 45.964844 27.015625 45.558594 26.28125 44.742188 C 25.542969 43.925781 25.175781 42.761719 25.175781 41.253906 " clip-rule="nonzero"/></clipPath><clipPath id="3456c2a937"><rect x="0" width="33" y="0" height="46"/></clipPath><clipPath id="94ede31ac3"><path d="M 437.773438 291.230469 L 469.21875 291.230469 L 469.21875 324.96875 L 437.773438 324.96875 Z M 437.773438 291.230469 " clip-rule="nonzero"/></clipPath><clipPath id="39e8804fd5"><path d="M 469.152344 314.75 C 469.152344 315.777344 468.84375 316.871094 468.230469 318.042969 C 467.613281 319.210938 466.675781 320.324219 465.417969 321.378906 C 464.15625 322.4375 462.574219 323.292969 460.664062 323.929688 C 458.75 324.566406 456.589844 324.90625 454.195312 324.90625 C 449.097656 324.90625 445.121094 323.421875 442.257812 320.449219 C 439.390625 317.480469 437.96875 313.496094 437.96875 308.496094 C 437.96875 305.113281 438.621094 302.121094 439.933594 299.519531 C 441.246094 296.914062 443.132812 294.914062 445.609375 293.488281 C 448.085938 292.0625 451.046875 291.359375 454.496094 291.359375 C 456.632812 291.359375 458.59375 291.671875 460.378906 292.296875 C 462.164062 292.917969 463.667969 293.726562 464.90625 294.710938 C 466.144531 295.691406 467.089844 296.75 467.75 297.867188 C 468.410156 298.984375 468.730469 300.027344 468.730469 300.996094 C 468.730469 301.984375 468.363281 302.816406 467.628906 303.507812 C 466.894531 304.199219 466.003906 304.535156 464.953125 304.535156 C 464.269531 304.535156 463.699219 304.355469 463.242188 304.003906 C 462.785156 303.648438 462.28125 303.082031 461.71875 302.292969 C 460.714844 300.761719 459.65625 299.613281 458.5625 298.851562 C 457.46875 298.085938 456.070312 297.703125 454.378906 297.703125 C 451.941406 297.703125 449.976562 298.65625 448.480469 300.558594 C 446.988281 302.464844 446.246094 305.066406 446.246094 308.375 C 446.246094 309.925781 446.433594 311.351562 446.824219 312.648438 C 447.214844 313.949219 447.761719 315.058594 448.480469 315.972656 C 449.203125 316.886719 450.085938 317.585938 451.113281 318.058594 C 452.140625 318.53125 453.265625 318.769531 454.496094 318.769531 C 456.148438 318.769531 457.566406 318.386719 458.742188 317.621094 C 459.917969 316.859375 460.960938 315.6875 461.871094 314.121094 C 462.371094 313.199219 462.917969 312.46875 463.503906 311.945312 C 464.089844 311.421875 464.800781 311.15625 465.648438 311.15625 C 466.65625 311.15625 467.496094 311.539062 468.15625 312.304688 C 468.816406 313.070312 469.152344 313.886719 469.152344 314.75 " clip-rule="nonzero"/></clipPath><clipPath id="b838c1f7a9"><path d="M 0.773438 0.230469 L 32.199219 0.230469 L 32.199219 33.960938 L 0.773438 33.960938 Z M 0.773438 0.230469 " clip-rule="nonzero"/></clipPath><clipPath id="63ccb5d9f2"><path d="M 32.152344 23.75 C 32.152344 24.777344 31.84375 25.871094 31.230469 27.042969 C 30.613281 28.210938 29.675781 29.324219 28.417969 30.378906 C 27.15625 31.4375 25.574219 32.292969 23.664062 32.929688 C 21.75 33.566406 19.589844 33.90625 17.195312 33.90625 C 12.097656 33.90625 8.121094 32.421875 5.257812 29.449219 C 2.390625 26.480469 0.96875 22.496094 0.96875 17.496094 C 0.96875 14.113281 1.621094 11.121094 2.933594 8.519531 C 4.246094 5.914062 6.132812 3.914062 8.609375 2.488281 C 11.085938 1.0625 14.046875 0.359375 17.496094 0.359375 C 19.632812 0.359375 21.59375 0.671875 23.378906 1.296875 C 25.164062 1.917969 26.667969 2.726562 27.90625 3.710938 C 29.144531 4.691406 30.089844 5.75 30.75 6.867188 C 31.410156 7.984375 31.730469 9.027344 31.730469 9.996094 C 31.730469 10.984375 31.363281 11.816406 30.628906 12.507812 C 29.894531 13.199219 29.003906 13.535156 27.953125 13.535156 C 27.269531 13.535156 26.699219 13.355469 26.242188 13.003906 C 25.785156 12.648438 25.28125 12.082031 24.71875 11.292969 C 23.714844 9.761719 22.65625 8.613281 21.5625 7.851562 C 20.46875 7.085938 19.070312 6.703125 17.378906 6.703125 C 14.941406 6.703125 12.976562 7.65625 11.480469 9.558594 C 9.988281 11.464844 9.246094 14.066406 9.246094 17.375 C 9.246094 18.925781 9.433594 20.351562 9.824219 21.648438 C 10.214844 22.949219 10.761719 24.058594 11.480469 24.972656 C 12.203125 25.886719 13.085938 26.585938 14.113281 27.058594 C 15.140625 27.53125 16.265625 27.769531 17.496094 27.769531 C 19.148438 27.769531 20.566406 27.386719 21.742188 26.621094 C 22.917969 25.859375 23.960938 24.6875 24.871094 23.121094 C 25.371094 22.199219 25.917969 21.46875 26.503906 20.945312 C 27.089844 20.421875 27.800781 20.15625 28.648438 20.15625 C 29.65625 20.15625 30.496094 20.539062 31.15625 21.304688 C 31.816406 22.070312 32.152344 22.886719 32.152344 23.75 " clip-rule="nonzero"/></clipPath><clipPath id="906209a5d0"><rect x="0" width="33" y="0" height="34"/></clipPath><clipPath id="788b647ce1"><path d="M 472.96875 291.230469 L 504.828125 291.230469 L 504.828125 325 L 472.96875 325 Z M 472.96875 291.230469 " clip-rule="nonzero"/></clipPath><clipPath id="d828188220"><path d="M 495.078125 308.375 C 493.871094 308.816406 492.109375 309.28125 489.808594 309.777344 C 487.503906 310.273438 485.90625 310.632812 485.015625 310.863281 C 484.121094 311.097656 483.28125 311.546875 482.480469 312.222656 C 481.675781 312.898438 481.273438 313.835938 481.273438 315.050781 C 481.273438 316.300781 481.746094 317.359375 482.691406 318.238281 C 483.632812 319.113281 484.871094 319.550781 486.410156 319.550781 C 488.039062 319.550781 489.542969 319.191406 490.925781 318.476562 C 492.304688 317.765625 493.316406 316.84375 493.960938 315.710938 C 494.703125 314.457031 495.078125 312.410156 495.078125 309.546875 Z M 495.621094 320.316406 C 493.625 321.867188 491.695312 323.03125 489.828125 323.800781 C 487.960938 324.574219 485.878906 324.964844 483.558594 324.964844 C 481.445312 324.964844 479.585938 324.546875 477.988281 323.710938 C 476.390625 322.878906 475.152344 321.746094 474.289062 320.316406 C 473.425781 318.882812 472.992188 317.328125 472.992188 315.65625 C 472.992188 313.398438 473.703125 311.480469 475.136719 309.890625 C 476.570312 308.300781 478.535156 307.226562 481.03125 306.6875 C 481.558594 306.566406 482.855469 306.296875 484.933594 305.871094 C 487.007812 305.441406 488.789062 305.058594 490.265625 304.707031 C 491.742188 304.355469 493.347656 303.925781 495.085938 303.425781 C 494.980469 301.25 494.546875 299.652344 493.773438 298.632812 C 493.003906 297.613281 491.390625 297.101562 488.953125 297.101562 C 486.859375 297.101562 485.277344 297.394531 484.226562 297.980469 C 483.175781 298.566406 482.261719 299.441406 481.503906 300.613281 C 480.746094 301.78125 480.214844 302.554688 479.898438 302.921875 C 479.585938 303.289062 478.917969 303.484375 477.890625 303.484375 C 476.96875 303.484375 476.164062 303.183594 475.488281 302.59375 C 474.816406 302 474.476562 301.242188 474.476562 300.3125 C 474.476562 298.863281 474.988281 297.457031 476.015625 296.082031 C 477.042969 294.710938 478.648438 293.585938 480.820312 292.699219 C 482.996094 291.816406 485.703125 291.371094 488.953125 291.371094 C 492.582031 291.371094 495.433594 291.800781 497.503906 292.65625 C 499.570312 293.511719 501.042969 294.867188 501.898438 296.71875 C 502.753906 298.574219 503.179688 301.03125 503.179688 304.09375 C 503.179688 306.027344 503.171875 307.671875 503.164062 309.019531 C 503.15625 310.371094 503.140625 311.871094 503.121094 313.519531 C 503.121094 315.074219 503.375 316.683594 503.890625 318.371094 C 504.410156 320.058594 504.664062 321.140625 504.664062 321.621094 C 504.664062 322.46875 504.265625 323.238281 503.472656 323.929688 C 502.675781 324.621094 501.777344 324.972656 500.765625 324.972656 C 499.917969 324.972656 499.085938 324.574219 498.257812 323.78125 C 497.433594 322.984375 496.558594 321.828125 495.632812 320.324219 " clip-rule="nonzero"/></clipPath><clipPath id="1166acfffc"><path d="M 0.96875 0.359375 L 32.71875 0.359375 L 32.71875 34 L 0.96875 34 Z M 0.96875 0.359375 " clip-rule="nonzero"/></clipPath><clipPath id="44b6b2c1a3"><path d="M 23.078125 17.375 C 21.871094 17.816406 20.109375 18.28125 17.808594 18.777344 C 15.503906 19.273438 13.90625 19.632812 13.015625 19.863281 C 12.121094 20.097656 11.28125 20.546875 10.480469 21.222656 C 9.675781 21.898438 9.273438 22.835938 9.273438 24.050781 C 9.273438 25.300781 9.746094 26.359375 10.691406 27.238281 C 11.632812 28.113281 12.871094 28.550781 14.410156 28.550781 C 16.039062 28.550781 17.542969 28.191406 18.925781 27.476562 C 20.304688 26.765625 21.316406 25.84375 21.960938 24.710938 C 22.703125 23.457031 23.078125 21.410156 23.078125 18.546875 Z M 23.621094 29.316406 C 21.625 30.867188 19.695312 32.03125 17.828125 32.800781 C 15.960938 33.574219 13.878906 33.964844 11.558594 33.964844 C 9.445312 33.964844 7.585938 33.546875 5.988281 32.710938 C 4.390625 31.878906 3.152344 30.746094 2.289062 29.316406 C 1.425781 27.882812 0.992188 26.328125 0.992188 24.65625 C 0.992188 22.398438 1.703125 20.480469 3.136719 18.890625 C 4.570312 17.300781 6.535156 16.226562 9.03125 15.6875 C 9.558594 15.566406 10.855469 15.296875 12.933594 14.871094 C 15.007812 14.441406 16.789062 14.058594 18.265625 13.707031 C 19.742188 13.355469 21.347656 12.925781 23.085938 12.425781 C 22.980469 10.25 22.546875 8.652344 21.773438 7.632812 C 21.003906 6.613281 19.390625 6.101562 16.953125 6.101562 C 14.859375 6.101562 13.277344 6.394531 12.226562 6.980469 C 11.175781 7.566406 10.261719 8.441406 9.503906 9.613281 C 8.746094 10.78125 8.214844 11.554688 7.898438 11.921875 C 7.585938 12.289062 6.917969 12.484375 5.890625 12.484375 C 4.96875 12.484375 4.164062 12.183594 3.488281 11.59375 C 2.816406 11 2.476562 10.242188 2.476562 9.3125 C 2.476562 7.863281 2.988281 6.457031 4.015625 5.082031 C 5.042969 3.710938 6.648438 2.585938 8.820312 1.699219 C 10.996094 0.816406 13.703125 0.371094 16.953125 0.371094 C 20.582031 0.371094 23.433594 0.800781 25.503906 1.65625 C 27.570312 2.511719 29.042969 3.867188 29.898438 5.71875 C 30.753906 7.574219 31.179688 10.03125 31.179688 13.09375 C 31.179688 15.027344 31.171875 16.671875 31.164062 18.019531 C 31.15625 19.371094 31.140625 20.871094 31.121094 22.519531 C 31.121094 24.074219 31.375 25.683594 31.890625 27.371094 C 32.410156 29.058594 32.664062 30.140625 32.664062 30.621094 C 32.664062 31.46875 32.265625 32.238281 31.472656 32.929688 C 30.675781 33.621094 29.777344 33.972656 28.765625 33.972656 C 27.917969 33.972656 27.085938 33.574219 26.257812 32.78125 C 25.433594 31.984375 24.558594 30.828125 23.632812 29.324219 " clip-rule="nonzero"/></clipPath><clipPath id="f8ae31053c"><rect x="0" width="33" y="0" height="34"/></clipPath><clipPath id="2e69d2b0ea"><path d="M 507 279.152344 L 515.449219 279.152344 L 515.449219 324.96875 L 507 324.96875 Z M 507 279.152344 " clip-rule="nonzero"/></clipPath><clipPath id="6a9f3627a6"><path d="M 507.027344 319.949219 L 507.027344 284.171875 C 507.027344 282.523438 507.394531 281.269531 508.128906 280.421875 C 508.863281 279.574219 509.863281 279.15625 511.105469 279.15625 C 512.351562 279.15625 513.363281 279.574219 514.128906 280.40625 C 514.894531 281.238281 515.277344 282.5 515.277344 284.171875 L 515.277344 319.949219 C 515.277344 321.621094 514.886719 322.871094 514.113281 323.710938 C 513.34375 324.550781 512.335938 324.964844 511.105469 324.964844 C 509.898438 324.964844 508.917969 324.53125 508.160156 323.667969 C 507.402344 322.804688 507.027344 321.558594 507.027344 319.949219 " clip-rule="nonzero"/></clipPath><clipPath id="23de04b720"><path d="M 0 0.152344 L 8.28125 0.152344 L 8.28125 45.96875 L 0 45.96875 Z M 0 0.152344 " clip-rule="nonzero"/></clipPath><clipPath id="781e13a8a4"><path d="M 0.0273438 40.949219 L 0.0273438 5.171875 C 0.0273438 3.523438 0.394531 2.269531 1.128906 1.421875 C 1.863281 0.574219 2.863281 0.15625 4.105469 0.15625 C 5.351562 0.15625 6.363281 0.574219 7.128906 1.40625 C 7.894531 2.238281 8.277344 3.5 8.277344 5.171875 L 8.277344 40.949219 C 8.277344 42.621094 7.886719 43.871094 7.113281 44.710938 C 6.34375 45.550781 5.335938 45.964844 4.105469 45.964844 C 2.898438 45.964844 1.917969 45.53125 1.160156 44.667969 C 0.402344 43.804688 0.0273438 42.558594 0.0273438 40.949219 " clip-rule="nonzero"/></clipPath><clipPath id="7562d5f8bd"><rect x="0" width="9" y="0" height="46"/></clipPath></defs><rect x="-60" width="720" fill="#ffffff" y="-60" height="719.999999" fill-opacity="1"/><rect x="-60" width="720" fill="#ffffff" y="-60" height="719.999999" fill-opacity="1"/><g clip-path="url(#d9d294376d)"><g clip-path="url(#15deb1b04a)"><g transform="matrix(1, 0, 0, 1, 202, 282)"><g clip-path="url(#ab2dba1aec)"><g clip-path="url(#235e3fa877)"><g clip-path="url(#00ff36c3d5)"><rect x="-334" width="864" fill="#00a6e0" height="863.999999" y="-414" fill-opacity="1"/></g></g></g></g></g></g><g clip-path="url(#9057254f45)"><g clip-path="url(#cb1018d95d)"><g transform="matrix(1, 0, 0, 1, 213, 289)"><g clip-path="url(#da3a77f76a)"><g clip-path="url(#fa9d31fa58)"><g clip-path="url(#1d0e1f0960)"><rect x="-345" width="864" fill="#00a6e0" height="863.999999" y="-421" fill-opacity="1"/></g></g></g></g></g></g><g clip-path="url(#6ccd19c0e2)"><g clip-path="url(#76c57f73a6)"><g transform="matrix(1, 0, 0, 1, 131, 289)"><g clip-path="url(#d3be088b7d)"><g clip-path="url(#400f54372c)"><g clip-path="url(#2f482b31ea)"><rect x="-263" width="864" fill="#00a6e0" height="863.999999" y="-421" fill-opacity="1"/></g></g></g></g></g></g><g clip-path="url(#0d41e291c9)"><g clip-path="url(#621602f3c5)"><g transform="matrix(1, 0, 0, 1, 253, 289)"><g clip-path="url(#e47806de0c)"><g clip-path="url(#2b8fe9bd87)"><g clip-path="url(#57466a0201)"><rect x="-385" width="864" fill="#00a6e0" height="863.999999" y="-421" fill-opacity="1"/></g></g></g></g></g></g><g clip-path="url(#53acd01e74)"><g clip-path="url(#0804b2352a)"><g transform="matrix(1, 0, 0, 1, 162, 274)"><g clip-path="url(#624ee13d7a)"><g clip-path="url(#f2b1c9b46f)"><g clip-path="url(#d2ce69dc51)"><rect x="-294" width="864" fill="#00a6e0" height="863.999999" y="-406" fill-opacity="1"/></g></g></g></g></g></g><g clip-path="url(#5f11753de2)"><g clip-path="url(#cec6aec5e3)"><g transform="matrix(1, 0, 0, 1, 84, 279)"><g clip-path="url(#82320460a4)"><g clip-path="url(#63f2d6ad9f)"><g clip-path="url(#2b41675457)"><rect x="-216" width="864" fill="#00a6e0" height="863.999999" y="-411" fill-opacity="1"/></g></g></g></g></g></g><g clip-path="url(#cd5c0d433a)"><g clip-path="url(#27d7cbb241)"><g transform="matrix(1, 0, 0, 1, 308, 279)"><g clip-path="url(#71bc572c63)"><g clip-path="url(#62e048f341)"><g clip-path="url(#eac4f445bb)"><rect x="-440" width="864" fill="#00a6e0" height="863.999999" y="-411" fill-opacity="1"/></g></g></g></g></g></g><g clip-path="url(#f0bee3d37f)"><g clip-path="url(#10e1e128c5)"><g transform="matrix(1, 0, 0, 1, 425, 279)"><g clip-path="url(#e5efda0142)"><g clip-path="url(#3cd89b18e0)"><g clip-path="url(#35a97a3a2c)"><rect x="-557" width="864" fill="#00a6e0" height="863.999999" y="-411" fill-opacity="1"/></g></g></g></g></g></g><g clip-path="url(#27ea00adbd)"><g clip-path="url(#f9cad31060)"><g transform="matrix(1, 0, 0, 1, 354, 291)"><g clip-path="url(#599260ea0f)"><g clip-path="url(#b578fd018f)"><g clip-path="url(#d6c9b60ca1)"><rect x="-486" width="864" fill="#00a6e0" height="863.999999" y="-423" fill-opacity="1"/></g></g></g></g></g></g><g clip-path="url(#9343c9e0af)"><g clip-path="url(#8423cccfd2)"><g transform="matrix(1, 0, 0, 1, 389, 279)"><g clip-path="url(#3456c2a937)"><g clip-path="url(#6020335cad)"><g clip-path="url(#49261b7456)"><rect x="-521" width="864" fill="#00a6e0" height="863.999999" y="-411" fill-opacity="1"/></g></g></g></g></g></g><g clip-path="url(#94ede31ac3)"><g clip-path="url(#39e8804fd5)"><g transform="matrix(1, 0, 0, 1, 437, 291)"><g clip-path="url(#906209a5d0)"><g clip-path="url(#b838c1f7a9)"><g clip-path="url(#63ccb5d9f2)"><rect x="-569" width="864" fill="#00a6e0" height="863.999999" y="-423" fill-opacity="1"/></g></g></g></g></g></g><g clip-path="url(#788b647ce1)"><g clip-path="url(#d828188220)"><g transform="matrix(1, 0, 0, 1, 472, 291)"><g clip-path="url(#f8ae31053c)"><g clip-path="url(#1166acfffc)"><g clip-path="url(#44b6b2c1a3)"><rect x="-604" width="864" fill="#00a6e0" height="863.999999" y="-423" fill-opacity="1"/></g></g></g></g></g></g><g clip-path="url(#2e69d2b0ea)"><g clip-path="url(#6a9f3627a6)"><g transform="matrix(1, 0, 0, 1, 507, 279)"><g clip-path="url(#7562d5f8bd)"><g clip-path="url(#23de04b720)"><g clip-path="url(#781e13a8a4)"><rect x="-639" width="864" fill="#00a6e0" height="863.999999" y="-411" fill-opacity="1"/></g></g></g></g></g></g></svg>