<?xml version='1.0' encoding='UTF-8' standalone='no'?>
<svg xmlns="http://www.w3.org/2000/svg" xmlns:xlink="http://www.w3.org/1999/xlink" zoomAndPan="magnify" viewBox="114.24 230.24 371.26 112.78" preserveAspectRatio="xMidYMid meet" version="1.0"><defs><filter x="0%" y="0%" width="100%" height="100%" id="528a67e783"><feColorMatrix values="0 0 0 0 1 0 0 0 0 1 0 0 0 0 1 0 0 0 1 0" color-interpolation-filters="sRGB"/></filter><filter x="0%" y="0%" width="100%" height="100%" id="1ac49b9537"><feColorMatrix values="0 0 0 0 1 0 0 0 0 1 0 0 0 0 1 0.2126 0.7152 0.0722 0 0" color-interpolation-filters="sRGB"/></filter><clipPath id="5c15ff9527"><path d="M 327.683594 255.679688 L 341.316406 255.679688 L 341.316406 330 L 327.683594 330 Z M 327.683594 255.679688 " clip-rule="nonzero"/></clipPath><clipPath id="ab9fb5bd9f"><path d="M 341.148438 282.855469 L 341.148438 321.660156 C 341.148438 324.355469 340.507812 326.386719 339.226562 327.757812 C 337.945312 329.132812 336.324219 329.820312 334.359375 329.820312 C 332.394531 329.820312 330.789062 329.117188 329.566406 327.707031 C 328.34375 326.296875 327.722656 324.28125 327.722656 321.65625 L 327.722656 283.246094 C 327.722656 280.59375 328.335938 278.589844 329.566406 277.246094 C 330.796875 275.90625 332.394531 275.230469 334.359375 275.230469 C 336.324219 275.230469 337.953125 275.90625 339.226562 277.246094 C 340.5 278.589844 341.148438 280.464844 341.148438 282.855469 M 334.507812 268.988281 C 332.640625 268.988281 331.042969 268.414062 329.714844 267.265625 C 328.390625 266.117188 327.722656 264.496094 327.722656 262.398438 C 327.722656 260.492188 328.402344 258.933594 329.761719 257.703125 C 331.117188 256.472656 332.703125 255.855469 334.507812 255.855469 C 336.25 255.855469 337.785156 256.414062 339.128906 257.53125 C 340.472656 258.648438 341.148438 260.265625 341.148438 262.398438 C 341.148438 264.460938 340.492188 266.078125 339.179688 267.242188 C 337.867188 268.40625 336.316406 268.988281 334.507812 268.988281 " clip-rule="nonzero"/></clipPath><clipPath id="bb5855ddc6"><path d="M 0.683594 0.839844 L 14.28125 0.839844 L 14.28125 75 L 0.683594 75 Z M 0.683594 0.839844 " clip-rule="nonzero"/></clipPath><clipPath id="a606ef50dc"><path d="M 14.148438 27.855469 L 14.148438 66.660156 C 14.148438 69.355469 13.507812 71.386719 12.226562 72.757812 C 10.945312 74.132812 9.324219 74.820312 7.359375 74.820312 C 5.394531 74.820312 3.789062 74.117188 2.566406 72.707031 C 1.34375 71.296875 0.722656 69.28125 0.722656 66.65625 L 0.722656 28.246094 C 0.722656 25.59375 1.335938 23.589844 2.566406 22.246094 C 3.796875 20.90625 5.394531 20.230469 7.359375 20.230469 C 9.324219 20.230469 10.953125 20.90625 12.226562 22.246094 C 13.5 23.589844 14.148438 25.464844 14.148438 27.855469 M 7.507812 13.988281 C 5.640625 13.988281 4.042969 13.414062 2.714844 12.265625 C 1.390625 11.117188 0.722656 9.496094 0.722656 7.398438 C 0.722656 5.492188 1.402344 3.933594 2.761719 2.703125 C 4.117188 1.472656 5.703125 0.855469 7.507812 0.855469 C 9.25 0.855469 10.785156 1.414062 12.128906 2.53125 C 13.472656 3.648438 14.148438 5.265625 14.148438 7.398438 C 14.148438 9.460938 13.492188 11.078125 12.179688 12.242188 C 10.867188 13.40625 9.316406 13.988281 7.507812 13.988281 " clip-rule="nonzero"/></clipPath><clipPath id="62c313ace3"><rect x="0" width="15" y="0" height="75"/></clipPath><clipPath id="810a265bae"><path d="M 347.582031 268.207031 L 409.847656 268.207031 L 409.847656 330.109375 L 347.582031 330.109375 Z M 347.582031 268.207031 " clip-rule="nonzero"/></clipPath><clipPath id="57407896dd"><path d="M 396.265625 299.101562 C 396.25 289.882812 388.304688 281.828125 379.015625 281.941406 C 368.152344 282.078125 361.507812 290.484375 361.292969 299.632812 C 361.066406 309.015625 369.234375 317.003906 378.667969 316.882812 C 388.492188 316.757812 396.277344 308.882812 396.265625 299.101562 M 378.152344 330.03125 C 363.292969 330.339844 347.925781 317.722656 347.84375 299.84375 C 347.761719 282.511719 361.832031 268.496094 379.035156 268.539062 C 395.972656 268.585938 409.589844 282.390625 409.570312 299.441406 C 409.539062 317.71875 394.082031 330.460938 378.160156 330.03125 " clip-rule="nonzero"/></clipPath><clipPath id="0f3db202ed"><path d="M 0.761719 0.320312 L 62.679688 0.320312 L 62.679688 62.109375 L 0.761719 62.109375 Z M 0.761719 0.320312 " clip-rule="nonzero"/></clipPath><clipPath id="40c3dd3872"><path d="M 49.265625 31.101562 C 49.25 21.882812 41.304688 13.828125 32.015625 13.941406 C 21.152344 14.078125 14.507812 22.484375 14.292969 31.632812 C 14.066406 41.015625 22.234375 49.003906 31.667969 48.882812 C 41.492188 48.757812 49.277344 40.882812 49.265625 31.101562 M 31.152344 62.03125 C 16.292969 62.339844 0.925781 49.722656 0.84375 31.84375 C 0.761719 14.511719 14.832031 0.496094 32.035156 0.539062 C 48.972656 0.585938 62.589844 14.390625 62.570312 31.441406 C 62.539062 49.71875 47.082031 62.460938 31.160156 62.03125 " clip-rule="nonzero"/></clipPath><clipPath id="d71b233f68"><rect x="0" width="63" y="0" height="63"/></clipPath><clipPath id="154410aa3e"><path d="M 205 268.207031 L 266.890625 268.207031 L 266.890625 330 L 205 330 Z M 205 268.207031 " clip-rule="nonzero"/></clipPath><clipPath id="a569c9c665"><path d="M 266.648438 298.792969 C 266.738281 311.957031 260.679688 321.625 248.710938 326.949219 C 229.300781 335.574219 209.035156 323.515625 205.589844 304.996094 C 202.351562 287.566406 213.144531 272.066406 230.347656 268.9375 C 234.316406 268.21875 238.375 268.015625 242.417969 268.71875 C 243.453125 268.898438 244.425781 269.183594 245.355469 269.632812 C 248.46875 271.132812 249.929688 273.863281 249.273438 276.878906 C 248.527344 280.269531 246.007812 282.363281 242.484375 282.429688 C 241.644531 282.445312 240.804688 282.265625 239.972656 282.167969 C 236.582031 281.777344 233.238281 281.761719 229.960938 282.925781 C 222.039062 285.730469 217.125 294.308594 218.875 302.335938 C 220.839844 311.355469 228.632812 317.070312 237.847656 316.230469 C 246.152344 315.480469 252.945312 308.355469 253.269531 300.003906 C 253.34375 298.050781 253.214844 296.09375 253.246094 294.136719 C 253.3125 290.5 255.953125 287.898438 259.667969 287.730469 C 263.507812 287.558594 266.265625 289.773438 266.625 293.492188 C 266.800781 295.238281 266.65625 297.023438 266.65625 298.792969 " clip-rule="nonzero"/></clipPath><clipPath id="46acab4aa6"><path d="M 0 0.207031 L 61.878906 0.207031 L 61.878906 62 L 0 62 Z M 0 0.207031 " clip-rule="nonzero"/></clipPath><clipPath id="93a6d96dcf"><path d="M 61.648438 30.792969 C 61.738281 43.957031 55.679688 53.625 43.710938 58.949219 C 24.300781 67.574219 4.035156 55.515625 0.589844 36.996094 C -2.648438 19.566406 8.144531 4.066406 25.347656 0.9375 C 29.316406 0.21875 33.375 0.015625 37.417969 0.71875 C 38.453125 0.898438 39.425781 1.183594 40.355469 1.632812 C 43.46875 3.132812 44.929688 5.863281 44.273438 8.878906 C 43.527344 12.269531 41.007812 14.363281 37.484375 14.429688 C 36.644531 14.445312 35.804688 14.265625 34.972656 14.167969 C 31.582031 13.777344 28.238281 13.761719 24.960938 14.925781 C 17.039062 17.730469 12.125 26.308594 13.875 34.335938 C 15.839844 43.355469 23.632812 49.070312 32.847656 48.230469 C 41.152344 47.480469 47.945312 40.355469 48.269531 32.003906 C 48.34375 30.050781 48.214844 28.09375 48.246094 26.136719 C 48.3125 22.5 50.953125 19.898438 54.667969 19.730469 C 58.507812 19.558594 61.265625 21.773438 61.625 25.492188 C 61.800781 27.238281 61.65625 29.023438 61.65625 30.792969 " clip-rule="nonzero"/></clipPath><clipPath id="ba7ae7f7b9"><rect x="0" width="62" y="0" height="62"/></clipPath><clipPath id="82c547da84"><path d="M 416.113281 268.207031 L 475.433594 268.207031 L 475.433594 330 L 416.113281 330 Z M 416.113281 268.207031 " clip-rule="nonzero"/></clipPath><clipPath id="0bc8496589"><path d="M 475.261719 309.730469 C 475.261719 314.011719 475.261719 318.285156 475.261719 322.570312 C 475.269531 327.078125 472.953125 329.703125 468.902344 329.761719 C 464.898438 329.828125 462.078125 326.949219 462.039062 322.554688 C 461.972656 314.363281 461.957031 306.175781 462.007812 297.992188 C 462.023438 295 461.230469 292.316406 459.683594 289.789062 C 456.316406 284.273438 449.828125 281.175781 443.640625 282.136719 C 436.765625 283.203125 431.714844 287.726562 430.082031 294.242188 C 429.625 296.066406 429.488281 297.902344 429.496094 299.769531 C 429.519531 307.585938 429.367188 315.40625 429.578125 323.214844 C 429.683594 327.0625 425.613281 331.351562 420.257812 329.257812 C 417.714844 328.269531 416.460938 326.296875 416.355469 323.640625 C 416.289062 321.878906 416.363281 320.109375 416.355469 318.339844 C 416.335938 311.640625 416.109375 304.9375 416.328125 298.238281 C 416.671875 287.859375 420.910156 279.324219 429.691406 273.382812 C 446.582031 261.96875 470.632812 271.78125 474.625 291.640625 C 475.050781 293.746094 475.269531 295.863281 475.253906 298.015625 C 475.230469 301.921875 475.246094 305.828125 475.246094 309.738281 Z M 475.261719 309.730469 " clip-rule="nonzero"/></clipPath><clipPath id="0abb83590c"><path d="M 0.113281 0.207031 L 59.433594 0.207031 L 59.433594 62 L 0.113281 62 Z M 0.113281 0.207031 " clip-rule="nonzero"/></clipPath><clipPath id="61e9688c34"><path d="M 59.261719 41.730469 C 59.261719 46.011719 59.261719 50.285156 59.261719 54.570312 C 59.269531 59.078125 56.953125 61.703125 52.902344 61.761719 C 48.898438 61.828125 46.078125 58.949219 46.039062 54.554688 C 45.972656 46.363281 45.957031 38.175781 46.007812 29.992188 C 46.023438 27 45.230469 24.316406 43.683594 21.789062 C 40.316406 16.273438 33.828125 13.175781 27.640625 14.136719 C 20.765625 15.203125 15.714844 19.726562 14.082031 26.242188 C 13.625 28.066406 13.488281 29.902344 13.496094 31.769531 C 13.519531 39.585938 13.367188 47.40625 13.578125 55.214844 C 13.683594 59.0625 9.613281 63.351562 4.257812 61.257812 C 1.714844 60.269531 0.460938 58.296875 0.355469 55.640625 C 0.289062 53.878906 0.363281 52.109375 0.355469 50.339844 C 0.335938 43.640625 0.109375 36.9375 0.328125 30.238281 C 0.671875 19.859375 4.910156 11.324219 13.691406 5.382812 C 30.582031 -6.03125 54.632812 3.78125 58.625 23.640625 C 59.050781 25.746094 59.269531 27.863281 59.253906 30.015625 C 59.230469 33.921875 59.246094 37.828125 59.246094 41.738281 Z M 59.261719 41.730469 " clip-rule="nonzero"/></clipPath><clipPath id="70aace7503"><rect x="0" width="60" y="0" height="62"/></clipPath><clipPath id="d8ef22fc98"><path d="M 258.785156 243.152344 L 322.894531 243.152344 L 322.894531 330 L 258.785156 330 Z M 258.785156 243.152344 " clip-rule="nonzero"/></clipPath><clipPath id="fa698a7e1f"><path d="M 322.675781 274.023438 C 321.976562 270.863281 319.515625 268.644531 316.367188 268.585938 C 312.863281 268.507812 303.285156 268.570312 297.683594 268.554688 C 297.683594 260.730469 297.683594 251.078125 297.652344 249.894531 C 297.578125 246.101562 294.730469 243.300781 291.046875 243.226562 C 287.355469 243.136719 284.671875 245.523438 284.28125 249.324219 C 284.214844 249.945312 284.167969 250.570312 284.117188 251.191406 C 284.0625 251.925781 284.027344 252.667969 283.996094 253.40625 C 283.960938 254.492188 284.027344 268.546875 284.027344 268.546875 C 284.027344 268.546875 268.023438 268.546875 265.613281 268.53125 C 262.726562 268.507812 260.804688 270.046875 259.578125 272.445312 C 258.308594 274.921875 258.75 277.382812 260.355469 279.609375 C 261.820312 281.628906 263.933594 282.136719 266.3125 282.121094 L 283.988281 282.09375 C 284.003906 291.519531 283.9375 319.691406 284.003906 323.160156 C 284.09375 326.957031 286.929688 329.753906 290.617188 329.828125 C 294.308594 329.90625 296.988281 327.527344 297.367188 323.71875 C 297.652344 321.007812 297.796875 318.285156 297.585938 315.558594 L 297.660156 282.078125 L 315.324219 282.046875 C 316.644531 282.046875 317.941406 282.007812 319.15625 281.355469 C 321.828125 279.917969 323.304688 276.878906 322.667969 274.015625 " clip-rule="nonzero"/></clipPath><clipPath id="746cd6ee31"><path d="M 0.785156 0.152344 L 64.894531 0.152344 L 64.894531 87 L 0.785156 87 Z M 0.785156 0.152344 " clip-rule="nonzero"/></clipPath><clipPath id="cc83d44b2d"><path d="M 64.675781 31.023438 C 63.976562 27.863281 61.515625 25.644531 58.367188 25.585938 C 54.863281 25.507812 45.285156 25.570312 39.683594 25.554688 C 39.683594 17.730469 39.683594 8.078125 39.652344 6.894531 C 39.578125 3.101562 36.730469 0.300781 33.046875 0.226562 C 29.355469 0.136719 26.671875 2.523438 26.28125 6.324219 C 26.214844 6.945312 26.167969 7.570312 26.117188 8.191406 C 26.0625 8.925781 26.027344 9.667969 25.996094 10.40625 C 25.960938 11.492188 26.027344 25.546875 26.027344 25.546875 C 26.027344 25.546875 10.023438 25.546875 7.613281 25.53125 C 4.726562 25.507812 2.804688 27.046875 1.578125 29.445312 C 0.308594 31.921875 0.75 34.382812 2.355469 36.609375 C 3.820312 38.628906 5.933594 39.136719 8.3125 39.121094 L 25.988281 39.09375 C 26.003906 48.519531 25.9375 76.691406 26.003906 80.160156 C 26.09375 83.957031 28.929688 86.753906 32.617188 86.828125 C 36.308594 86.90625 38.988281 84.527344 39.367188 80.71875 C 39.652344 78.007812 39.796875 75.285156 39.585938 72.558594 L 39.660156 39.078125 L 57.324219 39.046875 C 58.644531 39.046875 59.941406 39.007812 61.15625 38.355469 C 63.828125 36.917969 65.304688 33.878906 64.667969 31.015625 " clip-rule="nonzero"/></clipPath><clipPath id="3a2c1f5d03"><rect x="0" width="65" y="0" height="87"/></clipPath><clipPath id="ac8eb367ca"><path d="M 124.667969 251.261719 L 198.726562 251.261719 L 198.726562 329.371094 L 124.667969 329.371094 Z M 124.667969 251.261719 " clip-rule="nonzero"/></clipPath><clipPath id="c3b6b5525b"><path d="M 151.195312 316.320312 L 138.953125 267.675781 L 138.953125 320.386719 C 138.953125 323.304688 138.300781 325.496094 137.003906 326.949219 C 135.707031 328.40625 133.972656 329.140625 131.820312 329.140625 C 129.738281 329.140625 128.035156 328.417969 126.714844 326.980469 C 125.394531 325.539062 124.734375 323.34375 124.734375 320.386719 L 124.734375 259.96875 C 124.734375 256.628906 125.605469 254.386719 127.335938 253.226562 C 129.070312 252.0625 131.417969 251.476562 134.371094 251.476562 L 139.164062 251.476562 C 142.042969 251.476562 144.136719 251.738281 145.441406 252.257812 C 146.746094 252.773438 147.707031 253.71875 148.335938 255.070312 C 148.964844 256.417969 149.671875 258.632812 150.472656 261.683594 L 161.558594 303.511719 L 172.660156 261.683594 C 173.453125 258.632812 174.167969 256.425781 174.796875 255.070312 C 175.425781 253.710938 176.386719 252.78125 177.683594 252.257812 C 178.980469 251.730469 181.082031 251.476562 183.960938 251.476562 L 188.753906 251.476562 C 191.703125 251.476562 194.050781 252.0625 195.789062 253.226562 C 197.527344 254.386719 198.390625 256.636719 198.390625 259.96875 L 198.390625 320.386719 C 198.390625 323.304688 197.738281 325.496094 196.441406 326.949219 C 195.144531 328.40625 193.398438 329.140625 191.207031 329.140625 C 189.160156 329.140625 187.472656 328.410156 186.152344 326.949219 C 184.832031 325.488281 184.171875 323.304688 184.171875 320.386719 L 184.171875 267.675781 L 171.925781 316.320312 C 171.121094 319.480469 170.476562 321.796875 169.964844 323.273438 C 169.457031 324.753906 168.535156 326.09375 167.183594 327.308594 C 165.835938 328.523438 163.953125 329.132812 161.558594 329.132812 C 159.75 329.132812 158.230469 328.742188 156.976562 327.960938 C 155.722656 327.183594 154.757812 326.183594 154.058594 324.96875 C 153.363281 323.753906 152.8125 322.410156 152.417969 320.933594 C 152.019531 319.457031 151.605469 317.925781 151.195312 316.320312 " clip-rule="nonzero"/></clipPath><clipPath id="8b71b8e20b"><path d="M 0.667969 0.28125 L 74.480469 0.28125 L 74.480469 78.28125 L 0.667969 78.28125 Z M 0.667969 0.28125 " clip-rule="nonzero"/></clipPath><clipPath id="c3f409115d"><path d="M 27.195312 65.320312 L 14.953125 16.675781 L 14.953125 69.386719 C 14.953125 72.304688 14.300781 74.496094 13.003906 75.949219 C 11.707031 77.40625 9.972656 78.140625 7.820312 78.140625 C 5.738281 78.140625 4.035156 77.417969 2.714844 75.980469 C 1.394531 74.539062 0.734375 72.34375 0.734375 69.386719 L 0.734375 8.96875 C 0.734375 5.628906 1.605469 3.386719 3.335938 2.226562 C 5.070312 1.0625 7.417969 0.476562 10.371094 0.476562 L 15.164062 0.476562 C 18.042969 0.476562 20.136719 0.738281 21.441406 1.257812 C 22.746094 1.773438 23.707031 2.71875 24.335938 4.070312 C 24.964844 5.417969 25.671875 7.632812 26.472656 10.683594 L 37.558594 52.511719 L 48.660156 10.683594 C 49.453125 7.632812 50.167969 5.425781 50.796875 4.070312 C 51.425781 2.710938 52.386719 1.78125 53.683594 1.257812 C 54.980469 0.730469 57.082031 0.476562 59.960938 0.476562 L 64.753906 0.476562 C 67.703125 0.476562 70.050781 1.0625 71.789062 2.226562 C 73.527344 3.386719 74.390625 5.636719 74.390625 8.96875 L 74.390625 69.386719 C 74.390625 72.304688 73.738281 74.496094 72.441406 75.949219 C 71.144531 77.40625 69.398438 78.140625 67.207031 78.140625 C 65.160156 78.140625 63.472656 77.410156 62.152344 75.949219 C 60.832031 74.488281 60.171875 72.304688 60.171875 69.386719 L 60.171875 16.675781 L 47.925781 65.320312 C 47.121094 68.480469 46.476562 70.796875 45.964844 72.273438 C 45.457031 73.753906 44.535156 75.09375 43.183594 76.308594 C 41.835938 77.523438 39.953125 78.132812 37.558594 78.132812 C 35.75 78.132812 34.230469 77.742188 32.976562 76.960938 C 31.722656 76.183594 30.757812 75.183594 30.058594 73.96875 C 29.363281 72.753906 28.8125 71.410156 28.417969 69.933594 C 28.019531 68.457031 27.605469 66.925781 27.195312 65.320312 " clip-rule="nonzero"/></clipPath><clipPath id="e9b37361c6"><rect x="0" width="75" y="0" height="79"/></clipPath></defs><g clip-path="url(#5c15ff9527)"><g clip-path="url(#ab9fb5bd9f)"><g transform="matrix(1, 0, 0, 1, 327, 255)"><g clip-path="url(#62c313ace3)"><g clip-path="url(#bb5855ddc6)"><g clip-path="url(#a606ef50dc)"><rect x="-459" width="864" fill="#ffffff" height="863.999999" y="-387" fill-opacity="1"/></g></g></g></g></g></g><g clip-path="url(#810a265bae)"><g clip-path="url(#57407896dd)"><g transform="matrix(1, 0, 0, 1, 347, 268)"><g clip-path="url(#d71b233f68)"><g clip-path="url(#0f3db202ed)"><g clip-path="url(#40c3dd3872)"><rect x="-479" width="864" fill="#ffffff" height="863.999999" y="-400" fill-opacity="1"/></g></g></g></g></g></g><g clip-path="url(#154410aa3e)"><g clip-path="url(#a569c9c665)"><g transform="matrix(1, 0, 0, 1, 205, 268)"><g clip-path="url(#ba7ae7f7b9)"><g clip-path="url(#46acab4aa6)"><g clip-path="url(#93a6d96dcf)"><rect x="-337" width="864" fill="#ffffff" height="863.999999" y="-400" fill-opacity="1"/></g></g></g></g></g></g><g clip-path="url(#82c547da84)"><g clip-path="url(#0bc8496589)"><g transform="matrix(1, 0, 0, 1, 416, 268)"><g clip-path="url(#70aace7503)"><g clip-path="url(#0abb83590c)"><g clip-path="url(#61e9688c34)"><rect x="-548" width="864" fill="#ffffff" height="863.999999" y="-400" fill-opacity="1"/></g></g></g></g></g></g><g clip-path="url(#d8ef22fc98)"><g clip-path="url(#fa698a7e1f)"><g transform="matrix(1, 0, 0, 1, 258, 243)"><g clip-path="url(#3a2c1f5d03)"><g clip-path="url(#746cd6ee31)"><g clip-path="url(#cc83d44b2d)"><rect x="-390" width="864" fill="#ffffff" height="863.999999" y="-375" fill-opacity="1"/></g></g></g></g></g></g><g clip-path="url(#ac8eb367ca)"><g clip-path="url(#c3b6b5525b)"><g transform="matrix(1, 0, 0, 1, 124, 251)"><g clip-path="url(#e9b37361c6)"><g clip-path="url(#8b71b8e20b)"><g clip-path="url(#c3f409115d)"><rect x="-256" width="864" fill="#ffffff" height="863.999999" y="-383" fill-opacity="1"/></g></g></g></g></g></g></svg>